<?xml version="1.0" encoding="utf-8"?>
<svg viewBox="0 0 210 210" version="1.1" id="svg4518" xmlns="http://www.w3.org/2000/svg">
  <g style="fill:#000000;fill-opacity:1" id="g428" transform="matrix(0.05529, 0, 0, -0.05529, 4249.754395, 3734.000488)">
    <path style="fill: rgb(0,0,220);" id="path422" d="m -73474,64258 c 0,-74.992 -61.071,-136.16 -136.25,-136.16 h -2715 c -75.085,0 -136.16,61.163 -136.16,136.16 v 1609.6 h 2987.4 V 64258 Z m -2506.5,2947.4 c 0,71.93 58.472,130.4 130.59,130.4 71.837,0 130.4,-58.472 130.4,-130.4 v -271.85 c 0,-72.022 -58.565,-130.49 -130.4,-130.49 -72.115,0 -130.59,58.472 -130.59,130.49 z m 1764.5,0 c 0,71.93 58.565,130.4 130.4,130.4 71.929,0 130.49,-58.472 130.49,-130.4 v -271.85 c 0,-72.022 -58.565,-130.49 -130.49,-130.49 -71.837,0 -130.4,58.472 -130.4,130.49 z m 605.69,-76.199 h -127.34 v 76.199 c 0,191.84 -156.02,347.95 -347.95,347.95 -191.84,0 -347.95,-156.11 -347.95,-347.95 v -76.199 h -1068.5 v 76.199 c 0,191.84 -156.11,347.95 -347.86,347.95 -191.94,0 -347.95,-156.11 -347.95,-347.95 v -76.199 h -127.43 c -275.37,0 -499.33,-223.96 -499.33,-499.33 v -2371.8 c 0,-275.37 223.96,-499.33 499.33,-499.33 h 2715 c 275.47,0 499.42,223.96 499.42,499.33 v 2371.8 c 0,275.37 -223.96,499.33 -499.42,499.33"/>
  </g>
  <text x="58.384" y="151.536" style="white-space: pre; fill: rgb(128, 0, 0); font-size: 24px;" transform="matrix(3.386474, 0, 0, 4.002779, -180.730957, -439.293243)">תשרי</text>
</svg>