<?xml version="1.0"?>
<svg xmlns="http://www.w3.org/2000/svg" viewBox="0 0 1024 1024"  fill="rgb(230,201,0)">

<path d="M512 352
	c 17.6 0 32-14.4 32-32
	v -128c0-17.6-14.4-32-32-32
	s -32 14.4-32 32
	v 128c0 17.6 14.4 32 32 32
	z M800 640
	c 0 17.6 14.4 32 32 32
	h 128
	c 17.6 0 32-14.4 32-32
	s -14.4-32-32-32h-128
	c -17.6 0-32 14.4-32 32
	z" />

<path d="M 64 672h128c17.6 0 32-14.4 32-32s-14.4-32-32-32H64c-17.6 0-32 14.4-32 32s14.4 32 32 32z" />

<path d="M 992 864
	c 17.6 0 32 -14.4 32 -32
	s -14.4 -32 -32 -32
	H 32
	c -17.6 0 -32 14.4 -32 32
	s 14.4 32 32 32
    z
	" />

<path d="M 544 531.2 L 544 678.4 L 585.6 636.8 C 592 630.4 600 627.2 608 627.2 C 616 627.2 624 630.4 630.4 636.8 C 643.2 649.6 643.2 668.8 630.4 681.6 L 512 800 L 489.6 777.6 L 393.6 681.6 C 380.8 668.8 380.8 649.6 393.6 636.8 C 406.4 624 425.6 624 438.4 636.8 L 480 678.4 L 480 531.2 Z"/>

<path  d="M 272 444.8
	c 6.4 6.4 14.4 9.6 22.4 9.6s16-3.2 22.4-9.6c12.8-12.8 12.8-32 0-44.8l-91.2-91.2c-12.8-12.8-32-12.8-44.8 0-12.8 12.8-12.8 32 0 44.8l91.2 91.2z" />

<path  d="M 729.6 454.4
	c8 0 16-3.2 22.4-9.6l91.2-91.2c12.8-12.8 12.8-32 0-44.8s-32-12.8-44.8 0L705.6 400c-12.8 12.8-12.8 32 0 44.8 6.4 6.4 14.4 9.6 24 9.6z" />

<path d="M300.8 715.2c6.4 16 24 25.6 41.6 19.2 16-6.4 25.6-24 19.2-41.6-6.4-16-9.6-35.2-9.6-52.8 0-88 72-160 160-160s160 72 160 160c0 19.2-3.2 36.8-9.6 54.4-6.4 16 3.2 35.2 19.2 41.6 3.2 1.6 8 1.6 11.2 1.6 12.8 0 25.6-8 30.4-20.8 9.6-24 14.4-51.2 14.4-76.8 0-123.2-100.8-224-224-224s-224 100.8-224 224c-1.6 25.6 3.2 51.2 11.2 75.2z"  /></svg>